<?xml version="1.0" encoding="utf-8"?>
<svg xmlns="http://www.w3.org/2000/svg" xmlns:xlink="http://www.w3.org/1999/xlink" width="600" height="400" viewBox="0 0 600 400">
<defs>
  <clipPath id="clip5400">
    <rect x="0" y="0" width="600" height="400"/>
  </clipPath>
</defs>
<polygon clip-path="url(#clip5400)" points="
0,400 600,400 600,0 0,0 
  " fill="#ffffff" fill-opacity="1"/>
<defs>
  <clipPath id="clip5401">
    <rect x="120" y="0" width="421" height="400"/>
  </clipPath>
</defs>
<polygon clip-path="url(#clip5400)" points="
32.4745,375.869 580.315,375.869 580.315,11.811 32.4745,11.811 
  " fill="#ffffff" fill-opacity="1"/>
<defs>
  <clipPath id="clip5402">
    <rect x="32" y="11" width="549" height="365"/>
  </clipPath>
</defs>
<polyline clip-path="url(#clip5402)" style="stroke:#000000; stroke-width:0.5; stroke-opacity:0.1; fill:none" points="
  83.045,375.869 83.045,11.811 
  "/>
<polyline clip-path="url(#clip5402)" style="stroke:#000000; stroke-width:0.5; stroke-opacity:0.1; fill:none" points="
  195.132,375.869 195.132,11.811 
  "/>
<polyline clip-path="url(#clip5402)" style="stroke:#000000; stroke-width:0.5; stroke-opacity:0.1; fill:none" points="
  307.219,375.869 307.219,11.811 
  "/>
<polyline clip-path="url(#clip5402)" style="stroke:#000000; stroke-width:0.5; stroke-opacity:0.1; fill:none" points="
  419.307,375.869 419.307,11.811 
  "/>
<polyline clip-path="url(#clip5402)" style="stroke:#000000; stroke-width:0.5; stroke-opacity:0.1; fill:none" points="
  531.394,375.869 531.394,11.811 
  "/>
<polyline clip-path="url(#clip5402)" style="stroke:#000000; stroke-width:0.5; stroke-opacity:0.1; fill:none" points="
  32.4745,304.676 580.315,304.676 
  "/>
<polyline clip-path="url(#clip5402)" style="stroke:#000000; stroke-width:0.5; stroke-opacity:0.1; fill:none" points="
  32.4745,230.758 580.315,230.758 
  "/>
<polyline clip-path="url(#clip5402)" style="stroke:#000000; stroke-width:0.5; stroke-opacity:0.1; fill:none" points="
  32.4745,156.841 580.315,156.841 
  "/>
<polyline clip-path="url(#clip5402)" style="stroke:#000000; stroke-width:0.5; stroke-opacity:0.1; fill:none" points="
  32.4745,82.9226 580.315,82.9226 
  "/>
<polyline clip-path="url(#clip5400)" style="stroke:#000000; stroke-width:1; stroke-opacity:1; fill:none" points="
  32.4745,375.869 580.315,375.869 
  "/>
<polyline clip-path="url(#clip5400)" style="stroke:#000000; stroke-width:1; stroke-opacity:1; fill:none" points="
  32.4745,375.869 32.4745,11.811 
  "/>
<polyline clip-path="url(#clip5400)" style="stroke:#000000; stroke-width:1; stroke-opacity:1; fill:none" points="
  83.045,375.869 83.045,370.408 
  "/>
<polyline clip-path="url(#clip5400)" style="stroke:#000000; stroke-width:1; stroke-opacity:1; fill:none" points="
  195.132,375.869 195.132,370.408 
  "/>
<polyline clip-path="url(#clip5400)" style="stroke:#000000; stroke-width:1; stroke-opacity:1; fill:none" points="
  307.219,375.869 307.219,370.408 
  "/>
<polyline clip-path="url(#clip5400)" style="stroke:#000000; stroke-width:1; stroke-opacity:1; fill:none" points="
  419.307,375.869 419.307,370.408 
  "/>
<polyline clip-path="url(#clip5400)" style="stroke:#000000; stroke-width:1; stroke-opacity:1; fill:none" points="
  531.394,375.869 531.394,370.408 
  "/>
<polyline clip-path="url(#clip5400)" style="stroke:#000000; stroke-width:1; stroke-opacity:1; fill:none" points="
  32.4745,304.676 40.6921,304.676 
  "/>
<polyline clip-path="url(#clip5400)" style="stroke:#000000; stroke-width:1; stroke-opacity:1; fill:none" points="
  32.4745,230.758 40.6921,230.758 
  "/>
<polyline clip-path="url(#clip5400)" style="stroke:#000000; stroke-width:1; stroke-opacity:1; fill:none" points="
  32.4745,156.841 40.6921,156.841 
  "/>
<polyline clip-path="url(#clip5400)" style="stroke:#000000; stroke-width:1; stroke-opacity:1; fill:none" points="
  32.4745,82.9226 40.6921,82.9226 
  "/>
<g clip-path="url(#clip5400)">
<text style="fill:#000000; fill-opacity:1; font-family:Arial,Helvetica Neue,Helvetica,sans-serif; font-size:12; text-anchor:middle;" transform="rotate(0, 83.045, 389.669)" x="83.045" y="389.669">-4</text>
</g>
<g clip-path="url(#clip5400)">
<text style="fill:#000000; fill-opacity:1; font-family:Arial,Helvetica Neue,Helvetica,sans-serif; font-size:12; text-anchor:middle;" transform="rotate(0, 195.132, 389.669)" x="195.132" y="389.669">-2</text>
</g>
<g clip-path="url(#clip5400)">
<text style="fill:#000000; fill-opacity:1; font-family:Arial,Helvetica Neue,Helvetica,sans-serif; font-size:12; text-anchor:middle;" transform="rotate(0, 307.219, 389.669)" x="307.219" y="389.669">0</text>
</g>
<g clip-path="url(#clip5400)">
<text style="fill:#000000; fill-opacity:1; font-family:Arial,Helvetica Neue,Helvetica,sans-serif; font-size:12; text-anchor:middle;" transform="rotate(0, 419.307, 389.669)" x="419.307" y="389.669">2</text>
</g>
<g clip-path="url(#clip5400)">
<text style="fill:#000000; fill-opacity:1; font-family:Arial,Helvetica Neue,Helvetica,sans-serif; font-size:12; text-anchor:middle;" transform="rotate(0, 531.394, 389.669)" x="531.394" y="389.669">4</text>
</g>
<g clip-path="url(#clip5400)">
<text style="fill:#000000; fill-opacity:1; font-family:Arial,Helvetica Neue,Helvetica,sans-serif; font-size:12; text-anchor:end;" transform="rotate(0, 26.4745, 309.176)" x="26.4745" y="309.176">0.2</text>
</g>
<g clip-path="url(#clip5400)">
<text style="fill:#000000; fill-opacity:1; font-family:Arial,Helvetica Neue,Helvetica,sans-serif; font-size:12; text-anchor:end;" transform="rotate(0, 26.4745, 235.258)" x="26.4745" y="235.258">0.4</text>
</g>
<g clip-path="url(#clip5400)">
<text style="fill:#000000; fill-opacity:1; font-family:Arial,Helvetica Neue,Helvetica,sans-serif; font-size:12; text-anchor:end;" transform="rotate(0, 26.4745, 161.341)" x="26.4745" y="161.341">0.6</text>
</g>
<g clip-path="url(#clip5400)">
<text style="fill:#000000; fill-opacity:1; font-family:Arial,Helvetica Neue,Helvetica,sans-serif; font-size:12; text-anchor:end;" transform="rotate(0, 26.4745, 87.4226)" x="26.4745" y="87.4226">0.8</text>
</g>
<polyline clip-path="url(#clip5402)" style="stroke:#009af9; stroke-width:1; stroke-opacity:1; fill:none" points="
  32.4745,375.869 83.0814,371.942 113.494,367.296 139.208,361.031 153.174,356.359 167.14,350.544 180.015,343.978 192.89,336.067 206.694,325.883 220.498,313.745 
  236.491,297.053 252.484,277.491 266.697,257.841 280.91,236.396 293.373,216.512 305.837,196.079 333.013,152.009 360.352,112.223 375.465,93.3965 390.577,77.1259 
  404.957,64.0038 419.337,53.0401 434.288,43.6967 449.24,36.1703 461.826,31.0318 474.412,26.8147 505.144,19.5108 534.033,15.3518 580.315,11.811 
  "/>
</svg>
